<?xml version="1.0" encoding="utf-8"?>
<!-- Generator: Adobe Illustrator 19.2.0, SVG Export Plug-In . SVG Version: 6.00 Build 0)  -->
<svg version="1.1" id="Layer_1" xmlns="http://www.w3.org/2000/svg" xmlns:xlink="http://www.w3.org/1999/xlink" x="0px" y="0px"
	 viewBox="0 0 2267.7 1417.3" style="enable-background:new 0 0 2267.7 1417.3;" xml:space="preserve">
<g>
	<path d="M1524.9,1119.6"/>
	<path d="M566.5,1163c-23.9,0-48-1.9-72.1-5.6c-121.5-19-228.3-84.2-300.7-183.5C121.3,874.6,91.8,753,110.8,631.6
		c19-121.5,84.2-228.3,183.5-300.7c205-149.6,493.5-104.5,643.1,100.6L894,463.1c-132.1-181.1-386.9-221-568-88.8
		c-87.7,64-145.3,158.3-162.1,265.6c-16.8,107.3,9.2,214.7,73.2,302.4c64,87.7,158.3,145.3,265.6,162.1
		c107.3,16.8,214.7-9.2,302.4-73.2l31.7,43.4C757.2,1132.6,663.2,1163,566.5,1163z"/>
	<polygon points="727,988.5 928.5,988.5 834.5,1174.7 	"/>
	<g>
		<path d="M368.9,456h85.4v470.1h-85.4V456z"/>
		<path d="M517.9,588.4h80.8v39.1c0,12.6-1.3,23.2-1.3,23.2h1.3c14.6-28.5,51.6-70.2,119.8-70.2c74.8,0,117.2,39.1,117.2,128.4
			v217.2h-83.4v-200c0-41.1-10.6-68.9-53.6-68.9c-45,0-78.1,28.5-90.7,68.9c-4.6,13.9-6,29.1-6,45v154.9h-84.1V588.4z"/>
		<path d="M891.3,825.4c0,0,37.1,37.1,92,37.1c23.8,0,44.4-10.6,44.4-30.5c0-50.3-164.2-43.7-164.2-152.3
			c0-62.9,56.3-99.3,129.1-99.3c76.1,0,113.2,38.4,113.2,38.4l-31.1,62.2c0,0-31.1-29.1-82.8-29.1c-21.8,0-43,9.3-43,30.5
			c0,47.7,164.2,41.7,164.2,150.3c0,56.3-49,101.3-129.1,101.3c-84.1,0-131.1-49.7-131.1-49.7L891.3,825.4z"/>
		<path d="M1138.3,456h83.4v74.8h-83.4V456z M1138.3,588.4h84.1v337.7h-84.1V588.4z"/>
		<path d="M1402.5,580.5c74.2,0,97.3,43,97.3,43h1.3c0,0-0.7-8.6-0.7-19.2V456h84.1v470.1h-79.5v-27.8c0-12.6,1.3-21.8,1.3-21.8
			h-1.3c0,0-28.5,57.6-105.9,57.6c-91.4,0-149.6-72.2-149.6-176.8C1249.5,650,1313.1,580.5,1402.5,580.5z M1418.3,863.2
			c43.7,0,84.7-31.8,84.7-106.6c0-52.3-27.8-103.9-84.1-103.9c-46.3,0-84.7,37.7-84.7,104.6C1334.3,821.5,1368.7,863.2,1418.3,863.2
			z"/>
		<path d="M1782.5,580.5c97.3,0,149.6,70.8,149.6,160.2c0,9.9-2,32.4-2,32.4h-233.1c5.3,58.9,51,89.4,101.3,89.4
			c54.3,0,97.3-37.1,97.3-37.1l32.4,60.3c0,0-51.6,48.3-135.7,48.3c-111.9,0-181.4-80.8-181.4-176.8
			C1611,653.3,1681.9,580.5,1782.5,580.5z M1847.4,715.5c-1.3-45.7-29.8-70.2-66.9-70.2c-43,0-72.8,26.5-80.8,70.2H1847.4z"/>
		<path d="M1959.3,588.4h80.8v58.3c0,12.6-1.3,23.8-1.3,23.8h1.3c15.2-48.3,55.6-86.7,107.3-86.7c7.9,0,15.2,1.3,15.2,1.3v82.8
			c0,0-8.6-1.3-19.9-1.3c-35.8,0-76.1,20.5-92,70.8c-5.3,16.6-7.3,35.1-7.3,55v133.7h-84.1V588.4z"/>
	</g>
</g>
</svg>
